<?xml version="1.0" encoding="utf-8"?>
<!-- Generator: Adobe Illustrator 27.3.1, SVG Export Plug-In . SVG Version: 6.00 Build 0)  -->
<svg version="1.2" baseProfile="tiny" id="Camada_1"
	 xmlns="http://www.w3.org/2000/svg" xmlns:xlink="http://www.w3.org/1999/xlink" x="0px" y="0px" viewBox="0 0 1080 1080"
	 overflow="visible" xml:space="preserve">
<g>
	<path fill="#346F7D" d="M170.5,445.6c10.3,84.4,8.6,177.7,0,276.3c-44.7,40.6-138.3-15-149.1-47.1c-10.2-28.9-10.9-145.2,0-178.3
		C57.1,446.9,141.4,403.2,170.5,445.6z"/>
	<path fill="#346F7D" d="M909.5,445.6c-10.3,84.4-8.6,177.7,0,276.3c44.7,40.6,138.3-15,149.1-47.1c10.2-28.9,10.9-145.2,0-178.3
		C1022.9,446.9,938.6,403.2,909.5,445.6z"/>
	<line fill="#346F7D" x1="996.3" y1="535.6" x2="1064.7" y2="535.6"/>
	<polyline fill="#346F7D" points="25.2,520.2 31.5,520.2 72.8,520.2 	"/>
	<path fill="#346F7D" d="M19.8,502.2h53C95.6,275.3,309.6,94,536.9,106.5V67C271.2,61.2,75.7,244.4,19.8,502.2z"/>
	<path fill="#346F7D" d="M1053.9,502.2h-53c-22.8-226.8-236.8-408-464.1-395.6V67.1C802.5,61.3,998,244.5,1053.9,502.2z"/>
	<path fill="#346F7D" d="M962.5,710.1h31.7c0,88.4-82.6,186.4-198.8,243v-27C795.4,926.1,973.4,809.5,962.5,710.1z"/>
	<path fill="#346F7D" d="M795.4,926.6v22.7c1.3,33.9-101.4,84.8-144.7,44.5C628.3,955.5,676.6,922.3,795.4,926.6z"/>
</g>
</svg>
